<svg xmlns="http://www.w3.org/2000/svg" viewBox="0 0 400 300">
  <defs>
    <linearGradient id="bgGrad5" x1="0%" y1="0%" x2="100%" y2="100%">
      <stop offset="0%" style="stop-color:#667eea"/>
      <stop offset="100%" style="stop-color:#764ba2"/>
    </linearGradient>
  </defs>
  
  <!-- Background -->
  <rect width="400" height="300" fill="url(#bgGrad5)"/>
  
  <!-- Meeting room table -->
  <ellipse cx="200" cy="180" rx="120" ry="40" fill="rgba(139,69,19,0.8)"/>
  
  <!-- Documents on table -->
  <rect x="150" y="160" width="30" height="20" fill="rgba(255,255,255,0.9)" rx="2"/>
  <rect x="190" y="165" width="30" height="20" fill="rgba(255,255,255,0.9)" rx="2"/>
  <rect x="230" y="160" width="30" height="20" fill="rgba(255,255,255,0.9)" rx="2"/>
  
  <!-- Laptop -->
  <rect x="180" y="170" width="40" height="25" fill="rgba(255,255,255,0.9)" rx="2"/>
  <rect x="185" y="173" width="30" height="18" fill="#333" rx="1"/>
  
  <!-- People silhouettes -->
  <!-- Consultant -->
  <circle cx="120" cy="120" r="15" fill="rgba(255,255,255,0.9)"/>
  <rect x="110" y="130" width="20" height="30" fill="rgba(255,255,255,0.9)"/>
  
  <!-- Clients -->
  <circle cx="280" cy="125" r="12" fill="rgba(255,255,255,0.7)"/>
  <rect x="272" y="133" width="16" height="25" fill="rgba(255,255,255,0.7)"/>
  
  <circle cx="320" cy="130" r="12" fill="rgba(255,255,255,0.7)"/>
  <rect x="312" y="138" width="16" height="25" fill="rgba(255,255,255,0.7)"/>
  
  <!-- Speech bubble -->
  <ellipse cx="160" cy="80" rx="50" ry="25" fill="rgba(255,255,255,0.9)"/>
  <path d="M130,95 L125,110 L140,105 Z" fill="rgba(255,255,255,0.9)"/>
  <text x="160" y="75" text-anchor="middle" fill="#333" font-size="10">Numerical</text>
  <text x="160" y="88" text-anchor="middle" fill="#333" font-size="10">Methods</text>
  
  <!-- Mathematical symbols floating -->
  <text x="250" y="60" fill="rgba(255,255,255,0.8)" font-size="16">Del²</text>
  <text x="300" y="80" fill="rgba(255,255,255,0.8)" font-size="14">d/dt</text>
  <text x="80" y="70" fill="rgba(255,255,255,0.8)" font-size="14">CFD</text>
  
  <!-- Briefcase -->
  <rect x="60" y="140" width="25" height="15" fill="rgba(139,69,19,0.9)" rx="2"/>
  <rect x="62" y="142" width="21" height="4" fill="rgba(160,82,45,0.9)"/>
  
  <!-- Title -->
  <text x="200" y="250" text-anchor="middle" fill="white" font-family="Arial, sans-serif" font-size="20" font-weight="bold">Expert Consulting</text>
  <text x="200" y="275" text-anchor="middle" fill="white" font-family="Arial, sans-serif" font-size="14">Numerical Modeling Advisory</text>
</svg>